<svg id="Laag_1" data-name="Laag 1" xmlns="http://www.w3.org/2000/svg" viewBox="0 0 48.69 21.99"><defs><style>.cls-1{font-size:12px;font-family:Rancho-Regular, Rancho;}.cls-2{letter-spacing:-0.01em;}.cls-3{fill:#bc3737;stroke:#000;stroke-miterlimit:10;stroke-width:0.75px;}</style></defs><title>logo</title><text/><text class="cls-1" transform="translate(0 10.13)"><tspan class="cls-2">I</tspan><tspan x="3.23" y="0">nclude Food</tspan></text><path class="cls-3" d="M6.92,12.85c0,.28,0,.56.06.83a4.15,4.15,0,0,0,.31,1.11,5.11,5.11,0,0,0,2.48,2.48,21.31,21.31,0,0,0,2.49,1.23,10.9,10.9,0,0,0,5,1.14,26.81,26.81,0,0,0,4.42-.88,14.56,14.56,0,0,0,2-.66,8.71,8.71,0,0,0,1.38-.83,2.11,2.11,0,0,0,.91-1,1.6,1.6,0,0,0,0-1.18.86.86,0,0,1-.07-.25c0-.35.59-1,.78-1.31a14.42,14.42,0,0,1,1.55-1.86l.05,0c1.61-1.61,0-4.82,0-4.82l-.8.8s1.61,2.41,0,4c-.4.4-1.9,2.68-2.47,1.43s-3.44.64-4,1a14.31,14.31,0,0,1-1.92,1,13.09,13.09,0,0,1-4.06.81,7.5,7.5,0,0,1-3.4-.1,10.12,10.12,0,0,1-1.4-.86q-.64-.42-1.26-.87a5.72,5.72,0,0,1-1.56-1.42.75.75,0,0,0-.19-.24c-.15-.12-.37-.06-.35.16Z"/></svg>